<mxfile host="app.diagrams.net" modified="2024-04-24T00:30:41.889Z" agent="Mozilla/5.0 (Macintosh; Intel Mac OS X 10_15_7) AppleWebKit/537.36 (KHTML, like Gecko) Chrome/124.0.0.0 Safari/537.36" etag="lXiWGwaZGuQ_S4omnzTZ" version="24.2.7" type="github">
  <diagram name="Page-1" id="822b0af5-4adb-64df-f703-e8dfc1f81529">
    <mxGraphModel dx="2505" dy="1710" grid="1" gridSize="10" guides="1" tooltips="1" connect="1" arrows="1" fold="1" page="1" pageScale="1" pageWidth="1100" pageHeight="850" background="none" math="0" shadow="0">
      <root>
        <mxCell id="0" />
        <mxCell id="1" parent="0" />
        <mxCell id="7d933b09d9755ecc-6" value="Users" style="verticalLabelPosition=bottom;aspect=fixed;html=1;verticalAlign=top;strokeColor=none;shape=mxgraph.citrix.users;rounded=0;shadow=0;comic=0;fontFamily=Verdana;" parent="1" vertex="1">
          <mxGeometry x="-660" y="-220" width="64.5" height="55" as="geometry" />
        </mxCell>
        <mxCell id="pftGiPngnD7MNL07-28I-4" style="edgeStyle=orthogonalEdgeStyle;rounded=0;orthogonalLoop=1;jettySize=auto;html=1;exitX=1;exitY=1;exitDx=0;exitDy=0;exitPerimeter=0;" edge="1" parent="1" source="pftGiPngnD7MNL07-28I-1">
          <mxGeometry relative="1" as="geometry">
            <mxPoint x="-310" y="-340" as="targetPoint" />
          </mxGeometry>
        </mxCell>
        <mxCell id="pftGiPngnD7MNL07-28I-1" value="Actor" style="shape=umlActor;verticalLabelPosition=bottom;verticalAlign=top;html=1;outlineConnect=0;" vertex="1" parent="1">
          <mxGeometry x="-710" y="-510" width="30" height="60" as="geometry" />
        </mxCell>
        <mxCell id="pftGiPngnD7MNL07-28I-2" value="" style="shape=datastore;whiteSpace=wrap;html=1;" vertex="1" parent="1">
          <mxGeometry x="-280" y="-200" width="60" height="60" as="geometry" />
        </mxCell>
        <mxCell id="pftGiPngnD7MNL07-28I-3" value="" style="shape=internalStorage;whiteSpace=wrap;html=1;dx=15;dy=15;rounded=1;arcSize=8;strokeWidth=2;" vertex="1" parent="1">
          <mxGeometry x="-300" y="-370" width="70" height="70" as="geometry" />
        </mxCell>
      </root>
    </mxGraphModel>
  </diagram>
</mxfile>
